<?xml version="1.0" standalone="no"?>
<!DOCTYPE svg PUBLIC "-//W3C//DTD SVG 20010904//EN"
 "http://www.w3.org/TR/2001/REC-SVG-20010904/DTD/svg10.dtd">
<svg version="1.0" xmlns="http://www.w3.org/2000/svg"
 width="1024.000000pt" height="1536.000000pt" viewBox="0 0 1024.000000 1536.000000"
 preserveAspectRatio="xMidYMid meet">

<g transform="translate(0.000000,1536.000000) scale(0.100000,-0.100000)"
fill="#000000" stroke="none">
<path d="M5182 11205 c-150 -75 -299 -250 -444 -525 -169 -322 -380 -946 -522
-1545 -15 -60 -31 -126 -36 -145 -5 -19 -19 -80 -30 -135 -12 -55 -25 -116
-30 -135 -5 -19 -20 -100 -35 -180 -14 -80 -31 -158 -38 -175 -13 -34 -144
-199 -256 -324 -153 -171 -353 -283 -430 -241 -94 50 -82 213 50 690 58 209
87 310 105 369 30 96 10 163 -55 182 -90 27 -145 -13 -179 -128 -11 -37 -41
-140 -67 -228 -66 -226 -81 -267 -130 -366 -113 -226 -317 -451 -478 -524
-108 -50 -186 -43 -248 21 -31 32 -34 41 -37 108 -4 63 4 104 58 317 99 387
109 435 110 534 0 116 -19 173 -82 236 -177 177 -549 64 -847 -257 -81 -87
-230 -281 -276 -359 -24 -41 -30 -46 -33 -29 -2 12 6 59 17 105 10 46 29 128
42 182 l22 98 191 193 c365 367 548 611 720 956 92 186 124 266 191 485 50
166 72 482 38 581 -50 148 -160 224 -330 225 -79 1 -92 -2 -158 -35 -85 -42
-191 -147 -269 -266 -60 -91 -150 -279 -199 -415 -64 -177 -173 -570 -232
-840 -7 -33 -30 -132 -50 -220 -20 -88 -45 -200 -55 -250 -11 -49 -26 -121
-35 -160 -8 -38 -22 -101 -30 -140 -8 -38 -30 -144 -49 -235 -19 -91 -58 -275
-86 -410 -128 -616 -121 -573 -89 -614 16 -20 29 -26 60 -26 81 0 121 38 209
200 248 453 404 684 585 866 150 151 255 214 356 214 62 0 104 -21 125 -62 23
-45 13 -180 -25 -333 -114 -457 -113 -452 -109 -575 4 -131 20 -179 82 -248
43 -47 98 -75 183 -91 123 -24 312 34 451 139 85 63 187 158 220 205 l21 30 1
-66 c1 -190 108 -299 296 -299 119 0 250 53 389 159 69 52 220 203 256 255 29
43 49 46 49 9 0 -36 24 -125 46 -172 133 -286 591 -312 878 -50 139 127 251
327 306 546 28 112 28 290 0 397 -25 95 -81 189 -137 232 -109 83 -286 41
-385 -91 -49 -65 -52 -113 -9 -156 16 -16 37 -29 46 -29 9 0 49 16 88 35 83
41 104 43 142 13 41 -32 55 -76 55 -170 0 -376 -227 -704 -501 -725 -107 -8
-180 15 -236 73 -59 61 -76 125 -75 281 1 154 14 185 118 296 241 257 548 663
744 988 138 228 315 602 393 829 84 245 117 423 117 626 0 134 -3 160 -20 193
-43 85 -133 132 -265 138 -87 4 -92 3 -163 -32z m199 -237 c23 -43 5 -256 -35
-408 -119 -459 -347 -934 -679 -1412 -117 -169 -291 -391 -295 -378 -5 14 15
104 54 245 19 72 41 153 49 180 102 391 265 879 394 1178 132 307 277 532 385
598 44 27 112 26 127 -3z m-3176 -38 c45 -17 59 -68 51 -200 -5 -104 -31 -264
-56 -345 -135 -444 -331 -768 -707 -1167 -35 -38 -66 -68 -69 -68 -7 0 -3 18
63 290 53 221 155 611 173 660 4 14 20 66 35 115 91 308 216 570 316 660 67
60 132 79 194 55z"/>
<path d="M3517 9696 c-79 -29 -117 -91 -117 -189 0 -75 24 -119 80 -148 71
-38 173 -11 228 60 24 32 27 45 27 111 0 63 -4 80 -23 108 -42 59 -126 84
-195 58z"/>
<path d="M6030 9276 c-221 -40 -360 -198 -360 -407 0 -150 41 -229 236 -456
234 -273 285 -387 220 -497 -31 -53 -69 -80 -147 -107 -76 -25 -178 -21 -251
10 -70 30 -138 122 -138 188 0 26 -23 61 -47 72 -89 40 -183 -41 -183 -158 0
-154 125 -278 339 -337 103 -29 245 -32 336 -9 210 55 349 239 347 460 -1 154
-58 263 -236 453 -147 156 -201 229 -221 295 -30 100 -11 167 61 223 80 60
272 65 335 8 23 -21 69 -105 69 -127 0 -27 51 -67 86 -67 73 0 138 105 119
192 -44 201 -287 315 -565 264z"/>
<path d="M8455 9139 c-11 -7 -60 -51 -110 -98 -137 -132 -342 -281 -387 -281
-11 0 -18 12 -23 40 -17 98 -72 208 -131 260 -70 61 -115 75 -249 75 -132 0
-166 -9 -280 -73 -285 -160 -561 -566 -615 -902 -43 -273 37 -477 220 -564 61
-29 72 -31 180 -31 127 0 169 11 300 72 186 87 348 247 443 438 67 134 87 196
122 368 21 100 4 85 197 185 53 28 114 62 134 76 21 14 40 24 42 21 2 -2 -10
-49 -27 -104 -17 -56 -45 -147 -62 -203 -17 -57 -37 -121 -44 -143 -7 -22 -23
-74 -36 -115 -12 -41 -30 -100 -40 -130 -52 -161 -91 -310 -92 -352 -1 -65 29
-98 90 -98 57 0 95 20 115 62 9 18 40 94 68 168 144 372 319 651 559 891 103
103 140 132 200 162 83 41 136 47 171 19 40 -32 38 -151 -5 -292 -152 -495
-175 -588 -175 -720 0 -111 14 -160 63 -223 44 -57 98 -81 183 -82 102 0 181
42 299 160 134 134 168 223 94 249 -41 14 -74 0 -140 -59 -132 -118 -203 -144
-254 -94 -16 16 -20 32 -19 87 2 75 41 216 161 582 56 170 76 267 77 370 0 91
-2 111 -23 153 -54 109 -188 152 -346 112 -181 -47 -364 -189 -549 -428 -42
-54 -76 -92 -76 -85 0 12 27 111 84 313 14 50 26 105 26 122 0 67 -90 124
-145 92z m-826 -239 c46 -23 76 -78 86 -158 11 -81 -16 -97 -118 -71 -76 19
-127 83 -127 157 0 83 73 116 159 72z m-393 -127 c44 -142 89 -210 176 -263
54 -33 153 -60 227 -60 l44 0 -7 -47 c-13 -99 -79 -259 -154 -373 -50 -77
-157 -180 -222 -215 -51 -28 -63 -30 -155 -30 -121 0 -160 16 -204 82 -119
180 -24 508 264 909 13 19 25 18 31 -3z"/>
<path d="M7619 7313 c-66 -44 -345 -274 -532 -437 -76 -67 -145 -124 -152
-128 -7 -4 -50 4 -96 18 -565 169 -1218 254 -1958 254 -667 0 -1251 -77 -1686
-222 -641 -213 -869 -614 -546 -960 82 -87 182 -150 337 -213 152 -61 375
-120 554 -145 41 -5 111 -16 155 -22 108 -17 907 -16 1023 0 45 7 119 17 165
22 506 64 1023 274 1498 606 134 94 319 239 441 346 44 39 86 68 98 68 30 0
168 -50 275 -100 299 -139 398 -319 292 -533 -30 -61 -55 -92 -126 -159 -86
-80 -280 -210 -336 -224 -13 -3 -40 -24 -60 -45 -42 -47 -46 -85 -10 -119 21
-20 31 -22 74 -17 111 13 339 154 481 298 152 153 210 272 210 434 0 190 -95
338 -307 477 -72 48 -270 148 -291 148 -7 0 -12 4 -12 8 0 5 129 123 288 264
319 284 372 337 372 371 0 60 -72 65 -151 10z m-2454 -513 c476 -21 846 -65
1190 -141 143 -32 339 -85 364 -99 13 -7 -128 -133 -304 -271 -572 -449 -1100
-632 -1935 -670 -482 -22 -896 17 -1248 117 -224 64 -339 121 -433 215 -83 83
-114 166 -97 258 35 195 440 397 993 496 457 81 994 116 1470 95z"/>
</g>
</svg>
